<svg xmlns="http://www.w3.org/2000/svg" viewBox="0 0 64 64">
  <defs>
    <radialGradient id="m2-body" cx="0.4" cy="0.35" r="0.7">
      <stop offset="0%" stop-color="#8aa3ff"></stop>
      <stop offset="60%" stop-color="#5b8def"></stop>
      <stop offset="100%" stop-color="#4338ca"></stop>
    </radialGradient>
  </defs>


  <ellipse cx="32" cy="34" rx="28" ry="9" fill="none" stroke="#7c9eff" stroke-width="1" stroke-dasharray="2 3" opacity="0.5"></ellipse>

  <rect x="55" y="31" width="6" height="6" rx="1.5" fill="#4ade80"></rect>
  <rect x="3" y="31" width="6" height="6" rx="1.5" fill="#fbbf24"></rect>

  <path d="M 32 8
           C 44 8 52 16 52 26
           C 52 32 50 36 46 40
           C 50 44 50 50 46 54
           C 42 58 36 56 32 53
           C 28 56 22 58 18 54
           C 14 50 14 44 18 40
           C 14 36 12 32 12 26
           C 12 16 20 8 32 8 Z" fill="url(#m2-body)"></path>

  <circle cx="26" cy="26" r="4" fill="#fff"></circle>
  <circle cx="38" cy="26" r="4" fill="#fff"></circle>
  <circle cx="27" cy="27" r="1.8" fill="#0b0d10"></circle>
  <circle cx="39" cy="27" r="1.8" fill="#0b0d10"></circle>

  <path d="M 27 36 Q 32 40 37 36" stroke="#fff" stroke-width="2" stroke-linecap="round" fill="none"></path>

  <circle cx="32" cy="16" r="2.2" fill="#4ade80"></circle>
  <circle cx="32" cy="16" r="3.8" fill="none" stroke="#4ade80" stroke-width="0.8" opacity="0.5"></circle>
</svg>
